<?xml version="1.0" encoding="UTF-8" standalone="no"?>
<!-- Created with Inkscape (http://www.inkscape.org/) -->

<svg
   xmlns:dc="http://purl.org/dc/elements/1.1/"
   xmlns:cc="http://creativecommons.org/ns#"
   xmlns:rdf="http://www.w3.org/1999/02/22-rdf-syntax-ns#"
   xmlns:svg="http://www.w3.org/2000/svg"
   xmlns="http://www.w3.org/2000/svg"
   xmlns:sodipodi="http://sodipodi.sourceforge.net/DTD/sodipodi-0.dtd"
   xmlns:inkscape="http://www.inkscape.org/namespaces/inkscape"
   width="105.31145mm"
   height="77.692886mm"
   viewBox="0 0 105.31146 77.692887"
   version="1.1"
   id="svg8"
   inkscape:version="0.92.3 (2405546, 2018-03-11)"
   sodipodi:docname="antani_ico.svg">
  <defs
     id="defs2" />
  <sodipodi:namedview
     id="base"
     pagecolor="#ffffff"
     bordercolor="#666666"
     borderopacity="1.0"
     inkscape:pageopacity="0.0"
     inkscape:pageshadow="2"
     inkscape:zoom="0.98994949"
     inkscape:cx="212.04322"
     inkscape:cy="271.90649"
     inkscape:document-units="mm"
     inkscape:current-layer="layer1"
     showgrid="false"
     fit-margin-top="0"
     fit-margin-left="0"
     fit-margin-right="0"
     fit-margin-bottom="0"
     inkscape:window-width="1158"
     inkscape:window-height="1023"
     inkscape:window-x="67"
     inkscape:window-y="27"
     inkscape:window-maximized="0" />
  <metadata
     id="metadata5">
    <rdf:RDF>
      <cc:Work
         rdf:about="">
        <dc:format>image/svg+xml</dc:format>
        <dc:type
           rdf:resource="http://purl.org/dc/dcmitype/StillImage" />
        <dc:title></dc:title>
      </cc:Work>
    </rdf:RDF>
  </metadata>
  <g
     inkscape:label="Layer 1"
     inkscape:groupmode="layer"
     id="layer1"
     transform="translate(-51.419145,9.7514999)">
    <path
       style="fill:#d1e8e5;fill-opacity:1;stroke:none;stroke-width:2.68400002;stroke-miterlimit:4;stroke-dasharray:none;stroke-opacity:1"
       d="m 79.041016,-15.640625 c -6.962592,0.750249 -8.19365,9.7206338 -4.990235,14.78320312 C 76.130458,3.7154116 80.646617,7.6223627 81.71875,12.205078 75.106864,12.086226 68.366797,12.44557 62.074219,10.195312 54.349575,9.238498 44.091773,14.790613 45.832031,23.675781 c 2.179281,6.359416 10.561924,5.679214 15.25,2.720703 4.633762,0.296265 9.745967,1.524494 13.919922,2.707032 0.657469,3.504414 4.960977,5.380016 5.869141,8.082031 -2.407184,3.93215 -0.810519,10.243997 -5.59375,11.958984 -5.771034,4.968375 -1.043897,15.687202 6.482422,15.011719 2.379684,0.146688 4.643738,-2.253173 5.375,1.007812 4.520686,6.404364 16.649834,4.247772 17.414064,-3.996093 -0.3109,-2.251592 2.64343,-6.163933 1.87109,-1.949219 0.0219,9.212489 10.01366,17.444008 18.78125,15.3125 3.88126,-2.829339 0.27636,-7.215497 -0.14062,-10.556641 -0.051,-2.625984 -3.87568,-8.056531 -1.63086,-9.126953 3.38104,5.466684 12.46938,7.081851 15.91992,1.369141 5.79561,9.714351 24.03702,5.317854 23.35937,-6.417969 -0.68823,-5.310482 -7.2331,-5.526694 -11.15429,-4.9375 -5.24696,-9.145089 -9.32807,-21.744069 -20.65821,-24.832031 -2.98804,-0.403867 -5.53149,3.202199 -7.87304,2.722656 C 120.56421,18.927542 115.14848,21.3451 112.29688,20.050781 109.39629,15.956557 103.91135,16.06297 100.45703,12.71875 96.115211,11.176171 97.685228,5.9310975 95.059439,2.8210741 91.362627,-3.7800513 87.598523,-11.495679 80.894531,-15.347656 c -0.598712,-0.188516 -1.225218,-0.295867 -1.853515,-0.292969 z"
       id="path1019-3"
       inkscape:connector-curvature="0" />
    <path
       style="fill:#000084;fill-opacity:1;stroke-width:2.684;stroke:none;stroke-opacity:1;stroke-miterlimit:4;stroke-dasharray:none"
       d="m 79.150556,-9.7509393 c -1.10534,0.2149257 -1.076089,1.6598191 -0.900917,2.5327635 0.410506,3.4567042 3.301837,5.8263872 4.554802,8.9556228 1.932252,3.4507093 4.951552,6.5661068 5.334325,10.680665 0.268135,2.058011 0.817023,4.455423 -0.449513,6.301018 -0.897804,0.99399 -2.462652,0.810557 -3.461406,0.08009 -1.529581,-0.762063 -3.232794,-1.044621 -4.923902,-0.779892 -3.804341,0.216298 -7.844148,0.895286 -11.48451,-0.634583 -4.171028,-1.232459 -8.873754,-1.646554 -12.935131,0.05344 -1.449222,0.67623 -3.065013,1.697211 -3.449365,3.353589 -0.19587,1.444379 1.470792,2.533952 2.740281,1.878288 1.403546,-0.635314 2.536272,-1.835225 4.118486,-2.075949 4.04926,-0.899281 8.177467,0.222381 12.051267,1.378347 1.536075,0.4984 3.139634,0.800492 4.752492,0.529038 2.652011,-0.303381 5.433778,-0.947651 8.051912,-0.05828 -1.576107,1.423852 -2.993665,3.766854 -2.018593,5.903715 0.579342,1.025152 1.773717,1.958101 2.658785,2.39274 -0.08194,-0.966072 0.798169,-1.930198 1.801556,-1.642768 2.865823,0.285875 5.901531,1.383577 8.679561,0.105018 0.930842,-0.422271 2.025736,-0.07605 2.616218,0.74213 1.094126,1.302809 1.449645,3.027838 2.462192,4.385008 0.316074,0.507079 -0.260838,0.984675 -0.763414,0.860592 -3.200849,0.556697 -6.661157,-0.755276 -9.651051,0.860311 -2.592814,1.722145 -2.897124,5.073674 -3.849987,7.78478 -0.898994,2.210795 -1.554941,4.552214 -1.601445,6.95636 -0.0911,1.359298 -0.736822,3.084521 -2.283804,3.258734 -0.825948,0.126697 -1.672233,-0.365075 -2.434466,-0.317576 -1.020166,2.220203 1.494126,4.930687 3.796625,4.135205 2.837891,-0.510206 5.20337,-3.173362 5.065214,-6.104574 0.596627,-3.563562 2.696763,-6.849606 2.407616,-10.541544 0.127919,-1.205218 1.551127,-1.783509 2.613697,-1.469977 2.154022,0.09705 4.304603,0.948426 6.457092,0.359023 -1.799824,6.068098 -1.397356,12.777999 -4.513272,18.446272 -1.360154,0.09766 -3.192312,1.162712 -2.847258,2.74028 0.822491,2.164935 4.035237,2.387256 5.479441,0.73877 2.080613,-1.846245 2.27279,-4.854479 2.765764,-7.422701 0.603172,-2.240611 1.480242,-4.398746 2.012992,-6.660127 0.28855,1.784519 1.59405,3.57145 3.51462,3.70729 1.21757,0.123874 3.00153,-0.639942 2.8439,-2.097568 -0.55566,-0.959652 -1.64308,-1.609022 -1.86543,-2.777993 -0.63647,-1.918882 -0.5261,-3.978842 -1.03308,-5.926492 0.86426,0.308699 1.8097,-0.894204 2.56581,-0.04761 0.75971,1.632181 2.92489,2.245583 4.45673,1.310342 0.29911,0.03179 -0.45252,1.006097 -0.58013,1.454564 -0.87358,1.77341 -1.39697,4.168183 0.0721,5.788912 0.94234,1.057067 2.31831,2.385841 1.7167,3.946172 -0.67926,2.881682 -1.18956,5.895283 -0.70712,8.835268 0.45364,2.118569 2.01759,3.877012 4.01643,4.675544 0.79031,0.40275 1.65198,0.878324 2.45634,1.120072 -0.42086,-0.809248 -1.14955,-1.941195 -0.23692,-2.713116 0.65139,-1.156815 -0.15443,-2.720079 -1.38904,-3.063456 -1.35759,-1.051289 -0.95467,-2.988013 -0.97157,-4.473029 0.26525,-4.754589 2.17457,-9.495422 0.89063,-14.219687 -0.29263,-1.487685 -0.3587,-3.375422 0.98633,-4.388649 1.70533,-0.0185 2.84911,1.509357 3.89493,2.636382 1.79687,2.419365 2.85713,5.298218 4.82572,7.601047 1.05593,1.474181 1.90311,3.142076 2.94452,4.582488 2.09123,0.741954 4.24041,-0.833001 5.13162,-2.666627 1.78275,-2.830791 1.74857,-6.34321 1.14372,-9.505427 1.0462,0.933804 1.45875,2.511321 2.78088,3.115547 0.48075,0.04143 1.07964,0.03375 1.26947,0.594544 1.61806,3.122804 2.59121,6.796419 5.45899,9.052306 2.98429,2.41515 8.0385,1.36951 9.71967,-2.11549 0.24964,-0.454924 0.81284,-0.948064 0.82194,-1.384003 -2.231,-0.900196 -4.5758,0.153086 -6.70745,0.801221 -1.23964,0.148144 -2.43377,-0.79934 -2.64633,-2.013448 -3.37854,-7.578888 -7.84884,-14.61313 -12.70428,-21.3152 -0.86145,-0.905495 -1.6724,-2.140224 -2.94528,-2.440909 -3.83003,0.523751 -6.61897,3.465883 -9.77539,5.395427 -0.84245,0.228177 -1.36702,-0.689412 -2.1295,-0.824185 -0.72886,-0.406443 -0.85322,-1.337655 -0.59202,-2.05612 0.0808,-1.414692 -1.26003,-2.759947 -2.68763,-2.410944 -1.88863,0.213395 -3.3172,1.648126 -4.47827,3.032372 -1.12205,-2.078954 -3.32346,-3.259003 -4.71098,-5.090451 -0.31803,-2.022911 -2.93968,-3.058061 -4.63341,-1.999271 -0.67449,0.337321 -1.61131,0.08541 -1.77944,-0.716365 -1.144847,-1.878361 -2.86863,-3.485301 -4.883211,-4.44242 -1.25965,-0.24169 -2.537042,0.03454 -3.799146,0.10922 C 92.336793,13.19705 92.080497,9.2091929 90.226778,5.7676989 87.453057,2.7512128 85.772472,-1.0215983 83.747281,-4.5330656 82.55111,-6.5073555 81.141879,-8.5398641 79.187243,-9.7514999 Z M 131.5609,30.911346 c 1.45621,2.207143 2.93854,4.484726 3.50426,7.109326 -2.42626,-1.830941 -4.72134,-3.916761 -7.52801,-5.162146 1.12315,-0.986263 2.44498,-1.773479 3.90865,-2.121651 l 0.079,0.119687 z"
       id="path1019"
       inkscape:connector-curvature="0" />
  </g>
</svg>
